<svg id="visual" viewBox="0 0 900 600" width="900" height="600" xmlns="http://www.w3.org/2000/svg" xmlns:xlink="http://www.w3.org/1999/xlink" version="1.1"><g stroke-width="1" stroke-linejoin="bevel"><path d="M512.3 278L635.9 359L602.9 240Z" fill="#5c1a87" stroke="#5c1a87"></path><path d="M512.3 278L500.3 387L635.9 359Z" fill="#8d23af" stroke="#8d23af"></path><path d="M761.4 447L750.4 382L635.9 359Z" fill="#280b54" stroke="#280b54"></path><path d="M635.9 359L785.4 257L602.9 240Z" fill="#461473" stroke="#461473"></path><path d="M785.4 257L645.9 135L602.9 240Z" fill="#3c1168" stroke="#3c1168"></path><path d="M602.9 240L526.3 89L512.3 278Z" fill="#8021a5" stroke="#8021a5"></path><path d="M374.7 382L484.3 491L500.3 387Z" fill="#51177d" stroke="#51177d"></path><path d="M500.3 387L645.9 518L635.9 359Z" fill="#681d91" stroke="#681d91"></path><path d="M750.4 382L785.4 257L635.9 359Z" fill="#8021a5" stroke="#8021a5"></path><path d="M346.7 262L374.7 382L512.3 278Z" fill="#741f9b" stroke="#741f9b"></path><path d="M512.3 278L374.7 382L500.3 387Z" fill="#741f9b" stroke="#741f9b"></path><path d="M484.3 491L645.9 518L500.3 387Z" fill="#8021a5" stroke="#8021a5"></path><path d="M645.9 518L761.4 447L635.9 359Z" fill="#320e5e" stroke="#320e5e"></path><path d="M750.4 382L900 354L785.4 257Z" fill="#9a25b9" stroke="#9a25b9"></path><path d="M645.9 135L526.3 89L602.9 240Z" fill="#320e5e" stroke="#320e5e"></path><path d="M385.7 89L346.7 262L512.3 278Z" fill="#3c1168" stroke="#3c1168"></path><path d="M785.4 257L762.4 140L645.9 135Z" fill="#280b54" stroke="#280b54"></path><path d="M645.9 135L648.9 0L526.3 89Z" fill="#8021a5" stroke="#8021a5"></path><path d="M246.1 372L365.7 480L374.7 382Z" fill="#461473" stroke="#461473"></path><path d="M374.7 382L365.7 480L484.3 491Z" fill="#51177d" stroke="#51177d"></path><path d="M484.3 491L548.3 600L645.9 518Z" fill="#320e5e" stroke="#320e5e"></path><path d="M409.7 600L548.3 600L484.3 491Z" fill="#280b54" stroke="#280b54"></path><path d="M645.9 518L741.4 600L761.4 447Z" fill="#3c1168" stroke="#3c1168"></path><path d="M526.3 89L385.7 89L512.3 278Z" fill="#461473" stroke="#461473"></path><path d="M548.3 600L678.9 600L645.9 518Z" fill="#8021a5" stroke="#8021a5"></path><path d="M762.4 140L648.9 0L645.9 135Z" fill="#8021a5" stroke="#8021a5"></path><path d="M526.3 89L485.3 0L385.7 89Z" fill="#8021a5" stroke="#8021a5"></path><path d="M761.4 447L900 354L750.4 382Z" fill="#741f9b" stroke="#741f9b"></path><path d="M785.4 257L900 253L762.4 140Z" fill="#3c1168" stroke="#3c1168"></path><path d="M900 486L900 354L761.4 447Z" fill="#461473" stroke="#461473"></path><path d="M648.9 0L485.3 0L526.3 89Z" fill="#5c1a87" stroke="#5c1a87"></path><path d="M900 354L900 253L785.4 257Z" fill="#461473" stroke="#461473"></path><path d="M762.4 140L800.4 0L648.9 0Z" fill="#461473" stroke="#461473"></path><path d="M678.9 600L741.4 600L645.9 518Z" fill="#461473" stroke="#461473"></path><path d="M385.7 89L264.1 203L346.7 262Z" fill="#51177d" stroke="#51177d"></path><path d="M346.7 262L246.1 372L374.7 382Z" fill="#3c1168" stroke="#3c1168"></path><path d="M365.7 480L409.7 600L484.3 491Z" fill="#320e5e" stroke="#320e5e"></path><path d="M255.1 600L409.7 600L365.7 480Z" fill="#741f9b" stroke="#741f9b"></path><path d="M264.1 203L246.1 372L346.7 262Z" fill="#280b54" stroke="#280b54"></path><path d="M741.4 600L900 486L761.4 447Z" fill="#280b54" stroke="#280b54"></path><path d="M485.3 0L377.7 0L385.7 89Z" fill="#5c1a87" stroke="#5c1a87"></path><path d="M385.7 89L261.1 117L264.1 203Z" fill="#5c1a87" stroke="#5c1a87"></path><path d="M251.1 0L261.1 117L385.7 89Z" fill="#5c1a87" stroke="#5c1a87"></path><path d="M132.6 264L130.6 324L246.1 372Z" fill="#461473" stroke="#461473"></path><path d="M900 253L900 113L762.4 140Z" fill="#280b54" stroke="#280b54"></path><path d="M900 113L800.4 0L762.4 140Z" fill="#8d23af" stroke="#8d23af"></path><path d="M246.1 372L240.1 508L365.7 480Z" fill="#8d23af" stroke="#8d23af"></path><path d="M741.4 600L900 600L900 486Z" fill="#51177d" stroke="#51177d"></path><path d="M240.1 508L255.1 600L365.7 480Z" fill="#5c1a87" stroke="#5c1a87"></path><path d="M900 113L900 0L800.4 0Z" fill="#3c1168" stroke="#3c1168"></path><path d="M246.1 372L91.6 504L240.1 508Z" fill="#9a25b9" stroke="#9a25b9"></path><path d="M240.1 508L145.6 600L255.1 600Z" fill="#681d91" stroke="#681d91"></path><path d="M132.6 264L246.1 372L264.1 203Z" fill="#5c1a87" stroke="#5c1a87"></path><path d="M138.6 99L132.6 264L264.1 203Z" fill="#9a25b9" stroke="#9a25b9"></path><path d="M377.7 0L251.1 0L385.7 89Z" fill="#8d23af" stroke="#8d23af"></path><path d="M261.1 117L138.6 99L264.1 203Z" fill="#5c1a87" stroke="#5c1a87"></path><path d="M251.1 0L138.6 99L261.1 117Z" fill="#741f9b" stroke="#741f9b"></path><path d="M91.6 504L145.6 600L240.1 508Z" fill="#9a25b9" stroke="#9a25b9"></path><path d="M0 466L91.6 504L130.6 324Z" fill="#681d91" stroke="#681d91"></path><path d="M130.6 324L91.6 504L246.1 372Z" fill="#51177d" stroke="#51177d"></path><path d="M0 326L130.6 324L132.6 264Z" fill="#8d23af" stroke="#8d23af"></path><path d="M251.1 0L137.6 0L138.6 99Z" fill="#8021a5" stroke="#8021a5"></path><path d="M0 235L0 326L132.6 264Z" fill="#741f9b" stroke="#741f9b"></path><path d="M0 235L132.6 264L138.6 99Z" fill="#51177d" stroke="#51177d"></path><path d="M0 122L0 235L138.6 99Z" fill="#681d91" stroke="#681d91"></path><path d="M0 326L0 466L130.6 324Z" fill="#8d23af" stroke="#8d23af"></path><path d="M91.6 504L0 600L145.6 600Z" fill="#8d23af" stroke="#8d23af"></path><path d="M0 0L0 122L138.6 99Z" fill="#9a25b9" stroke="#9a25b9"></path><path d="M0 466L0 600L91.6 504Z" fill="#461473" stroke="#461473"></path><path d="M137.6 0L0 0L138.6 99Z" fill="#320e5e" stroke="#320e5e"></path></g></svg>